<?xml version="1.0" standalone="no"?>
<!DOCTYPE svg PUBLIC "-//W3C//DTD SVG 20010904//EN"
 "http://www.w3.org/TR/2001/REC-SVG-20010904/DTD/svg10.dtd">
<svg version="1.0" xmlns="http://www.w3.org/2000/svg"
 width="355.000000pt" height="242.000000pt" viewBox="0 0 355.000000 242.000000"
 preserveAspectRatio="xMidYMid meet">
<metadata>
Created by potrace 1.15, written by Peter Selinger 2001-2017
</metadata>
<g transform="translate(0.000000,242.000000) scale(0.100000,-0.100000)"
fill="#000000" stroke="none">
<path d="M122 1618 c-17 -17 -17 -909 0 -926 18 -18 350 -15 403 3 38 13 38
14 5 7 -19 -4 -118 -7 -220 -7 l-185 0 0 460 0 460 175 5 175 6 -170 2 c-122
1 -174 -1 -183 -10z"/>
<path d="M1975 1611 l-30 -18 -3 -446 -2 -447 30 0 30 0 2 391 3 391 303 -387
c167 -213 302 -389 300 -391 -2 -1 -127 155 -278 348 -306 391 -305 390 -294
368 4 -8 135 -178 291 -378 250 -319 288 -362 312 -362 15 0 32 5 39 12 17 17
17 909 0 926 -7 7 -26 11 -42 11 -31 -2 -31 -2 4 -8 l35 -6 0 -460 0 -460 -35
-1 -35 -2 33 5 32 4 0 455 0 454 -30 0 -30 0 -2 -396 -3 -395 -295 377 c-323
414 -328 420 -314 412 5 -4 137 -170 294 -371 157 -201 288 -363 292 -361 5 3
7 168 6 367 l-3 362 -5 -360 -5 -360 -285 365 c-157 201 -284 368 -282 373 3
9 3 9 -33 -12z"/>
<path d="M2742 1618 c-17 -17 -17 -909 0 -926 17 -17 589 -17 606 0 7 7 11 26
11 43 -2 30 -2 30 -8 -5 l-6 -35 -300 0 -300 0 0 460 0 460 300 0 300 0 6 -35
c6 -35 6 -35 8 -5 0 17 -4 36 -11 43 -17 17 -589 17 -606 0z"/>
<path d="M130 1154 l0 -456 193 4 c215 4 263 15 353 85 25 19 48 33 50 30 5
-5 -53 -47 -111 -79 -27 -15 -45 -28 -39 -28 25 0 134 75 182 127 101 109 147
250 124 383 -13 77 -47 164 -61 156 -5 -4 -19 9 -31 28 -31 52 -123 131 -183
159 -79 38 -143 47 -317 47 l-160 0 0 -456z m364 381 c120 -25 219 -102 273
-213 25 -52 28 -67 28 -167 0 -102 -2 -115 -29 -170 -56 -112 -160 -191 -286
-215 -29 -5 -106 -10 -171 -10 l-119 0 0 395 0 395 118 0 c64 0 148 -7 186
-15z"/>
<path d="M1310 1599 c-129 -25 -256 -127 -317 -254 -31 -66 -36 -89 -41 -168
-5 -105 16 -184 70 -270 78 -122 233 -207 378 -207 314 -1 540 331 424 621
-17 42 -23 46 -43 27 -11 -11 -12 -10 -6 2 5 8 4 11 0 7 -15 -13 -15 -40 0
-91 81 -272 -157 -544 -433 -496 -217 38 -362 238 -323 447 7 37 26 94 43 125
115 215 409 268 593 106 l36 -31 22 21 21 22 -28 29 c-16 17 -59 45 -95 64
-101 53 -193 67 -301 46z"/>
<path d="M2750 1155 l0 -455 295 0 295 0 0 30 0 30 -262 0 -263 0 0 180 0 180
193 0 193 0 -3 33 -3 32 -187 3 -188 2 0 180 c0 99 3 179 8 179 4 -1 121 -1
260 0 l252 1 0 30 0 30 -295 0 -295 0 0 -455z"/>
</g>
</svg>
